<svg width="34" height="34" viewBox="0 0 34 34" fill="none" xmlns="http://www.w3.org/2000/svg">
<path d="M26.5808 30.6H7.42744C5.16077 30.6 3.2341 28.9 2.95077 26.6333L1.7041 20.4H32.3041L31.1141 26.6333C30.8308 28.9 28.9041 30.6 26.5808 30.6Z" stroke="#34B8A3"/>
<path d="M1.99186 17.5667H32.0252C32.8185 17.5667 33.4419 18.19 33.4419 18.9833C33.4419 19.7767 32.8185 20.4 32.0252 20.4H1.99186C1.19853 20.4 0.575195 19.7767 0.575195 18.9833C0.575195 18.19 1.19853 17.5667 1.99186 17.5667Z" stroke="#34B8A3"/>
<path d="M7.94629 30.6H11.3463V32.3C11.3463 32.9233 10.8363 33.4333 10.213 33.4333H9.07962C8.45629 33.4333 7.94629 32.9233 7.94629 32.3V30.6Z" stroke="#34B8A3"/>
<path d="M22.6875 30.6H26.0875V32.3C26.0875 32.9233 25.5775 33.4333 24.9542 33.4333H23.8208C23.1975 33.4333 22.6875 32.9233 22.6875 32.3V30.6Z" stroke="#34B8A3"/>
<path d="M5.6875 17.5667V4.53335C5.6875 3.85334 6.08417 3.23001 6.7075 2.94668C7.33083 2.66334 8.0675 2.77668 8.5775 3.28668L9.65416 4.25001" stroke="#34B8A3"/>
<path d="M3.40918 17.5667V3.96666C3.40918 2.89 3.91918 1.92666 4.76918 1.24666C5.67585 0.679996 6.86585 0.453329 7.94251 0.623329C8.56585 0.736662 9.13251 0.906662 9.64251 1.24666C10.2092 1.64333 10.6625 2.15333 11.1158 2.66333L11.1725 2.72" stroke="#34B8A3"/>
<path d="M10.6524 8.61333C10.5391 8.72666 10.3691 8.78333 10.1991 8.78333C10.0291 8.78333 9.8591 8.67 9.80243 8.55666C8.6691 6.97 8.8391 4.81666 10.1991 3.45667C11.5591 2.09667 13.7124 1.92667 15.2991 3.06C15.4124 3.17333 15.5258 3.28667 15.5258 3.45667C15.5258 3.62667 15.4691 3.79667 15.3558 3.91L10.6524 8.61333Z" stroke="#34B8A3"/>
<path d="M11.8428 10.6533L12.6361 11.4467" stroke="#34B8A3"/>
<path d="M17.4639 5.0433L18.2572 5.83664" stroke="#34B8A3"/>
<path d="M14.6318 7.87668L15.4252 8.67001" stroke="#34B8A3"/>
<path d="M17.4639 7.42331L18.2572 8.21664" stroke="#34B8A3"/>
<path d="M14.2324 10.6533L15.0258 11.4467" stroke="#34B8A3"/>
<path d="M17.0664 10.2567L17.8597 11.05" stroke="#34B8A3"/>
<path d="M14.2324 13.0333L15.0258 13.8266" stroke="#34B8A3"/>
<path d="M19.834 7.42331L20.6273 8.21664" stroke="#34B8A3"/>
</svg>
