<svg width="40" height="27" viewBox="0 0 40 27" fill="none" xmlns="http://www.w3.org/2000/svg">
<path d="M34.166 0.67923V6.62263" stroke="#34B8A3" stroke-miterlimit="10" stroke-linejoin="round"/>
<path d="M36.666 0.67923V6.62263" stroke="#34B8A3" stroke-miterlimit="10" stroke-linejoin="round"/>
<path d="M39.166 0.67923V9.1698C39.166 10.9528 37.5827 11.5472 36.666 11.717L37.4993 24.4528C37.4993 25.217 37.3327 26.1509 35.416 26.1509C33.4993 26.1509 33.3327 25.217 33.3327 24.4528L34.166 11.717C33.2493 11.5472 31.666 10.9528 31.666 9.1698V0.67923" stroke="#34B8A3" stroke-miterlimit="10" stroke-linejoin="round"/>
<path d="M1.74967 5.00941C1.49967 6.96224 0.833008 14.2641 0.833008 14.2641L2.49967 15.9622V24.4528C2.49967 25.3019 3.16634 26.1509 4.16634 26.1509C5.16634 26.1509 5.83301 25.4717 5.83301 24.5377V1.8679C5.83301 1.8679 5.83301 0.84903 4.58301 0.84903C3.33301 0.84903 2.08301 2.97167 1.74967 5.00941Z" stroke="#34B8A3" stroke-miterlimit="10" stroke-linejoin="round"/>
<path d="M18.7497 23.5189C24.5026 23.5189 29.1663 18.7672 29.1663 12.9057C29.1663 7.04415 24.5026 2.29245 18.7497 2.29245C12.9967 2.29245 8.33301 7.04415 8.33301 12.9057C8.33301 18.7672 12.9967 23.5189 18.7497 23.5189Z" stroke="#34B8A3" stroke-miterlimit="10" stroke-linejoin="round"/>
<path d="M24.2493 8.40564C25.2493 9.67922 25.8327 11.2075 25.8327 12.9056C25.8327 16.8962 22.666 20.1226 18.7493 20.1226C16.9993 20.1226 15.416 19.5283 14.166 18.4245" stroke="#34B8A3" stroke-miterlimit="10" stroke-linecap="round" stroke-linejoin="round"/>
</svg>
