<svg width="31" height="21" viewBox="0 0 31 21" fill="none" xmlns="http://www.w3.org/2000/svg">
<path d="M28.8472 0.53125H17.2222H13.7778H2.15278C0.947222 0.53125 0 1.46408 0 2.65131V10.7075C0 11.8948 0.947222 12.8276 2.15278 12.8276H13.7778H17.2222H28.8472C30.0528 12.8276 31 11.8948 31 10.7075V2.65131C31 1.46408 30.0528 0.53125 28.8472 0.53125ZM2.15278 1.37927H13.7778H17.2222H28.8472C29.5792 1.37927 30.1389 1.93049 30.1389 2.65131V8.58748H17.2222H13.7778H0.861111V2.65131C0.861111 1.93049 1.42083 1.37927 2.15278 1.37927ZM13.7778 11.9796H4.73611V11.1316H13.7778H17.2222H26.2639V11.9796H17.2222H13.7778ZM28.8472 11.9796H27.125V10.2835H17.2222H13.7778H3.875V11.9796H2.15278C1.42083 11.9796 0.861111 11.4284 0.861111 10.7075V9.4355H13.7778H17.2222H30.1389V10.7075C30.1389 11.4284 29.5792 11.9796 28.8472 11.9796Z" fill="#34B8A3"/>
<path d="M6.02789 14.5236H5.16678C5.16678 14.8628 5.03761 14.99 4.82233 15.2444C4.564 15.4988 4.30566 15.8381 4.30566 16.5165C4.30566 17.1525 4.60705 17.4917 4.82233 17.7885C5.03761 18.0005 5.16678 18.1701 5.16678 18.5093C5.16678 18.8485 5.03761 19.0181 4.82233 19.2302C4.564 19.4846 4.30566 19.8238 4.30566 20.5022H5.16678C5.16678 20.163 5.29594 19.9934 5.51122 19.7814C5.76955 19.527 6.02789 19.1878 6.02789 18.5093C6.02789 17.8309 5.7265 17.5341 5.51122 17.2373C5.29594 17.0253 5.16678 16.8557 5.16678 16.5165C5.16678 16.1773 5.29594 16.0501 5.51122 15.7957C5.7265 15.4988 6.02789 15.1596 6.02789 14.5236Z" fill="#34B8A3"/>
<path d="M11.1949 14.5236H10.3338C10.3338 14.8628 10.2046 14.99 9.98932 15.2444C9.73099 15.4988 9.47266 15.8381 9.47266 16.5165C9.47266 17.1525 9.77405 17.4917 9.98932 17.7885C10.2046 18.0005 10.3338 18.1701 10.3338 18.5093C10.3338 18.8485 10.2046 19.0181 9.98932 19.2302C9.73099 19.4846 9.47266 19.8238 9.47266 20.5022H10.3338C10.3338 20.163 10.4629 19.9934 10.6782 19.7814C10.9365 19.527 11.1949 19.1878 11.1949 18.5093C11.1949 17.8309 10.8935 17.5341 10.6782 17.2373C10.4629 17.0253 10.3338 16.8557 10.3338 16.5165C10.3338 16.1773 10.4629 16.0501 10.6782 15.7957C10.8935 15.4988 11.1949 15.1596 11.1949 14.5236Z" fill="#34B8A3"/>
<path d="M16.3609 14.5236H15.4998C15.4998 14.8628 15.3706 14.99 15.1553 15.2444C14.897 15.4988 14.6387 15.8381 14.6387 16.5165C14.6387 17.1525 14.9401 17.4917 15.1553 17.7885C15.3706 18.0005 15.4998 18.1701 15.4998 18.5093C15.4998 18.8485 15.3706 19.0181 15.1553 19.2302C14.897 19.4846 14.6387 19.8238 14.6387 20.5022H15.4998C15.4998 20.163 15.629 19.9934 15.8442 19.7814C16.1026 19.527 16.3609 19.1878 16.3609 18.5093C16.3609 17.8309 16.0595 17.5341 15.8442 17.2373C15.629 17.0253 15.4998 16.8557 15.4998 16.5165C15.4998 16.1773 15.629 16.0501 15.8442 15.7957C16.0595 15.4988 16.3609 15.1596 16.3609 14.5236Z" fill="#34B8A3"/>
<path d="M21.5279 14.5236H20.6668C20.6668 14.8628 20.5376 14.99 20.3223 15.2444C20.064 15.4988 19.8057 15.8381 19.8057 16.5165C19.8057 17.1525 20.1071 17.4917 20.3223 17.7885C20.5376 18.0005 20.6668 18.1701 20.6668 18.5093C20.6668 18.8485 20.5376 19.0181 20.3223 19.2302C20.064 19.4846 19.8057 19.8238 19.8057 20.5022H20.6668C20.6668 20.163 20.7959 19.9934 21.0112 19.7814C21.2696 19.527 21.5279 19.1878 21.5279 18.5093C21.5279 17.8309 21.2265 17.5341 21.0112 17.2373C20.7959 17.0253 20.6668 16.8557 20.6668 16.5165C20.6668 16.1773 20.7959 16.0501 21.0112 15.7957C21.2265 15.4988 21.5279 15.1596 21.5279 14.5236Z" fill="#34B8A3"/>
<path d="M26.6949 14.5236H25.8338C25.8338 14.8628 25.7046 14.99 25.4893 15.2444C25.231 15.4988 24.9727 15.8381 24.9727 16.5165C24.9727 17.1525 25.274 17.4917 25.4893 17.7885C25.7046 18.0005 25.8338 18.1701 25.8338 18.5093C25.8338 18.8485 25.7046 19.0181 25.4893 19.2302C25.231 19.4846 24.9727 19.8238 24.9727 20.5022H25.8338C25.8338 20.163 25.9629 19.9934 26.1782 19.7814C26.4365 19.527 26.6949 19.1878 26.6949 18.5093C26.6949 17.8309 26.3935 17.5341 26.1782 17.2373C25.9629 17.0253 25.8338 16.8557 25.8338 16.5165C25.8338 16.1773 25.9629 16.0501 26.1782 15.7957C26.3935 15.4988 26.6949 15.1596 26.6949 14.5236Z" fill="#34B8A3"/>
</svg>
