<svg width="33" height="38" viewBox="0 0 33 38" fill="none" xmlns="http://www.w3.org/2000/svg">
<path d="M16.46 16.2292V0.791656" stroke="#34B8A3" stroke-miterlimit="10" stroke-linecap="round" stroke-linejoin="round"/>
<path d="M14.2549 4.75L16.5389 6.33333L18.9804 4.75" stroke="#34B8A3" stroke-miterlimit="10" stroke-linecap="round" stroke-linejoin="round"/>
<path d="M12.6797 7.91666L16.5389 11.0833L20.5556 7.91666" stroke="#34B8A3" stroke-miterlimit="10" stroke-linecap="round" stroke-linejoin="round"/>
<path d="M14.0977 17.575L0.866211 9.89581" stroke="#34B8A3" stroke-miterlimit="10" stroke-linecap="round" stroke-linejoin="round"/>
<path d="M3.07129 13.8542L5.59158 12.6667L5.43406 9.73749" stroke="#34B8A3" stroke-miterlimit="10" stroke-linecap="round" stroke-linejoin="round"/>
<path d="M5.04004 16.7833L9.68682 15.0416L8.97799 9.97498" stroke="#34B8A3" stroke-miterlimit="10" stroke-linecap="round" stroke-linejoin="round"/>
<path d="M14.0974 20.3458L0.787109 28.1042" stroke="#34B8A3" stroke-miterlimit="10" stroke-linecap="round" stroke-linejoin="round"/>
<path d="M5.35496 28.1042L5.59123 25.3333L2.99219 23.9875" stroke="#34B8A3" stroke-miterlimit="10" stroke-linecap="round" stroke-linejoin="round"/>
<path d="M8.89888 27.8667L9.68647 22.9583L4.96094 21.0583" stroke="#34B8A3" stroke-miterlimit="10" stroke-linecap="round" stroke-linejoin="round"/>
<path d="M16.46 21.7708V37.2083" stroke="#34B8A3" stroke-miterlimit="10" stroke-linecap="round" stroke-linejoin="round"/>
<path d="M18.7441 33.25L16.4601 31.6667L14.0186 33.25" stroke="#34B8A3" stroke-miterlimit="10" stroke-linecap="round" stroke-linejoin="round"/>
<path d="M20.3193 30.0833L16.4601 26.9167L12.4434 30.0833" stroke="#34B8A3" stroke-miterlimit="10" stroke-linecap="round" stroke-linejoin="round"/>
<path d="M18.9014 20.425L32.1329 28.1042" stroke="#34B8A3" stroke-miterlimit="10" stroke-linecap="round" stroke-linejoin="round"/>
<path d="M29.9275 24.1458L27.4072 25.3333L27.5647 28.2625" stroke="#34B8A3" stroke-miterlimit="10" stroke-linecap="round" stroke-linejoin="round"/>
<path d="M27.9593 21.2166L23.3125 22.9583L24.0213 28.025" stroke="#34B8A3" stroke-miterlimit="10" stroke-linecap="round" stroke-linejoin="round"/>
<path d="M18.9014 17.6541L32.2116 9.89581" stroke="#34B8A3" stroke-miterlimit="10" stroke-linecap="round" stroke-linejoin="round"/>
<path d="M27.6435 9.89581L27.4072 12.6666L30.0063 14.0125" stroke="#34B8A3" stroke-miterlimit="10" stroke-linecap="round" stroke-linejoin="round"/>
<path d="M24.1001 10.1333L23.3125 15.0417L28.038 16.9417" stroke="#34B8A3" stroke-miterlimit="10" stroke-linecap="round" stroke-linejoin="round"/>
</svg>
