<svg width="40" height="31" viewBox="0 0 40 31" fill="none" xmlns="http://www.w3.org/2000/svg">
<path d="M39.166 12.5698C34.9993 9.76711 34.9993 15.7123 31.666 12.5698" stroke="#34B8A3" stroke-miterlimit="10" stroke-linecap="round"/>
<path d="M39.166 8.32329C34.9993 5.52055 34.9993 11.4658 31.666 8.32329" stroke="#34B8A3" stroke-miterlimit="10" stroke-linecap="round"/>
<path d="M39.166 4.07671C34.9993 1.27397 34.9993 7.21918 31.666 4.07671" stroke="#34B8A3" stroke-miterlimit="10" stroke-linecap="round"/>
<path d="M8.33301 0.849304C4.16634 0.849304 0.833008 4.24656 0.833008 8.49314C0.833008 12.7397 4.16634 16.137 8.33301 16.137C14.1663 16.137 19.9997 12.7397 22.4997 12.7397C22.4997 10.1918 22.4997 4.24656 22.4997 4.24656C19.9997 4.24656 13.333 0.849304 8.33301 0.849304Z" stroke="#34B8A3" stroke-miterlimit="10"/>
<path d="M1.58301 11.8904C3.24967 15.2877 3.33301 17.8356 3.33301 22.0822C3.33301 24.8 3.83301 28.6219 6.66634 29.726C9.33301 30.7452 13.2497 29.8959 13.4997 27.4329C13.7497 24.8849 6.49967 21.3178 11.9997 15.8822" stroke="#34B8A3" stroke-miterlimit="10"/>
<path d="M0.833008 8.49313H4.99967" stroke="#34B8A3" stroke-miterlimit="10" stroke-linecap="round"/>
<path d="M1.66602 5.94519H4.99935" stroke="#34B8A3" stroke-miterlimit="10" stroke-linecap="round"/>
<path d="M1.58301 11.0411H4.99967" stroke="#34B8A3" stroke-miterlimit="10" stroke-linecap="round"/>
<path d="M22.5 4.24657L26.6667 2.54794C27.5 3.82192 28.3333 5.52055 28.3333 8.49315C28.3333 11.4658 27.25 13.674 26.6667 14.4384L22.5 12.7397" stroke="#34B8A3" stroke-miterlimit="10"/>
<path d="M12.0827 24.6301H8.33268C7.41602 24.6301 6.66602 23.8657 6.66602 22.9315V21.2329C6.66602 20.2986 7.41602 19.5342 8.33268 19.5342H9.91602" stroke="#34B8A3" stroke-miterlimit="10"/>
</svg>
