<svg width="45" height="23" viewBox="0 0 45 23" fill="none" xmlns="http://www.w3.org/2000/svg">
<path d="M31 16.5714C31 19.0204 31.8082 22 36.0286 22H36.9714C41.1469 22 42 19.0612 42 16.5714V16H31V16.5714Z" stroke="#34B8A3" stroke-miterlimit="10" stroke-linecap="round" stroke-linejoin="round"/>
<path d="M42 16.5C42.1152 16.1105 42.7273 15.8456 43.3414 16.062C43.8788 16.2351 44.1475 16.8409 43.9172 17.6199C43.6101 18.8316 42.997 18.8316 41.5 20" stroke="#34B8A3" stroke-miterlimit="10" stroke-linecap="round"/>
<path d="M23.9746 18.0985C27.9726 18.0985 28.4339 15.2659 29.1002 13.4118C29.7666 11.5578 30.4329 9.24018 31.7656 8.72516C31.7656 8.00414 31.7656 7.18011 31.7656 7.18011C31.7656 7.18011 31.6118 7.18011 30.4842 7.18011C28.1264 7.18011 27.4088 9.9097 23.9746 9.9097" stroke="#34B8A3" stroke-miterlimit="10" stroke-linejoin="round"/>
<path d="M5.93359 13.9785C5.93359 16.8111 7.31752 19.1801 9.31652 20.8282V21.4977H21.5668V20.8282C23.6683 19.2316 25.0522 16.8626 25.0522 13.9785C25.0522 11.0944 23.6683 8.7768 21.5668 7.12875V6.45923H9.31652V7.12875C7.31752 8.7768 5.93359 11.1459 5.93359 13.9785Z" stroke="#34B8A3" stroke-miterlimit="10" stroke-linejoin="round"/>
<path d="M10.7006 9.18866C9.41924 10.4247 8.65039 12.0728 8.65039 13.9783C8.65039 15.8839 9.41924 17.5319 10.7006 18.768" stroke="#34B8A3" stroke-miterlimit="10" stroke-linecap="round" stroke-linejoin="round"/>
<path d="M20.9005 4.39922C19.6191 3.47219 17.2613 3.06018 15.4674 3.06018C13.6734 3.06018 11.3156 3.47219 10.0342 4.45073" stroke="#34B8A3" stroke-miterlimit="10" stroke-linecap="round" stroke-linejoin="round"/>
<path d="M15.4668 1V3.06007" stroke="#34B8A3" stroke-miterlimit="10" stroke-linecap="round" stroke-linejoin="round"/>
<path d="M6.95831 9.90977C6.39449 9.24025 5.36936 8.51923 4.24172 8.51923H3.57538C2.08895 8.51923 0.5 9.60076 0.5 11.9183C0.5 14.8024 3.26785 17.223 6.90705 17.944" stroke="#34B8A3" stroke-miterlimit="10"/>
</svg>
