<svg width="37" height="31" viewBox="0 0 37 31" fill="none" xmlns="http://www.w3.org/2000/svg">
<path d="M5.03638 29.7992H25.0513V1H5.03638C2.80766 1 1 2.80766 1 5.03638V25.7628C1 27.9915 2.80766 29.7992 5.03638 29.7992Z" stroke="#34B8A3" stroke-miterlimit="10"/>
<path d="M28.835 29.7992H29.5972C31.6445 29.7992 33.2997 28.144 33.2997 26.0967V4.70244C33.2997 2.65521 31.6445 1 29.5972 1H28.835V29.7992Z" stroke="#34B8A3" stroke-miterlimit="10"/>
<path d="M33.2998 12.2017C34.788 12.2017 36.0004 13.8569 36.0004 15.8969C36.0004 17.9369 34.788 19.5921 33.2998 19.5921" stroke="#34B8A3" stroke-miterlimit="10"/>
<path d="M9.50172 9.47211V5.43573H7.03343V9.47937C5.87914 9.55923 4.97168 10.5175 4.97168 11.6936V23.0477C4.97168 24.2746 5.96626 25.2619 7.18588 25.2619H9.34927C10.5762 25.2619 11.5635 24.2674 11.5635 23.0477V11.6863C11.5635 10.5102 10.656 9.55197 9.50172 9.47211Z" stroke="#34B8A3" stroke-miterlimit="10"/>
<path d="M17.5664 20.2383C15.6208 20.2383 14.0527 18.663 14.0527 16.7246V13.3416H21.0874V16.7246C21.0874 18.663 19.512 20.2383 17.5664 20.2383Z" stroke="#34B8A3" stroke-miterlimit="10"/>
<path d="M15.6641 25.4871H19.3883" stroke="#34B8A3" stroke-miterlimit="10"/>
<path d="M17.5664 20.2382V25.487" stroke="#34B8A3" stroke-miterlimit="10"/>
</svg>
