<svg width="33" height="43" viewBox="0 0 33 43" fill="none" xmlns="http://www.w3.org/2000/svg">
<path d="M21.8467 1H11.4684L6.3916 13.1805H26.9235L21.8467 1Z" stroke="#34B8A3" stroke-miterlimit="10" stroke-linejoin="round"/>
<path d="M32 22.1248H1V25.9453H32V22.1248Z" stroke="#34B8A3" stroke-miterlimit="10" stroke-linejoin="round"/>
<path d="M25.4407 28.4173H7.60449V33.1366H25.4407V28.4173Z" stroke="#34B8A3" stroke-miterlimit="10" stroke-linejoin="round"/>
<path d="M28.5402 25.9452H25.2605H7.73879H4.50401H3.69531V41.6765H7.73879V36.2829H25.2605V41.6765H29.304V25.9452H28.5402Z" stroke="#34B8A3" stroke-miterlimit="10" stroke-linejoin="round"/>
<path d="M18.1178 20.0123V17.72C18.1178 17.0458 18.2975 16.4165 18.5671 15.9221L19.2859 14.7086C19.5555 14.3041 19.6903 13.7198 19.6903 13.1355H13.67C13.67 13.7198 13.8048 14.3041 14.0743 14.7086L14.7932 15.9221C15.0627 16.4165 15.2424 17.0458 15.2424 17.72V20.0123C14.3439 20.3718 13.5801 21.1359 13.1758 22.1247H20.2294C19.7801 21.1359 19.0164 20.3718 18.1178 20.0123Z" stroke="#34B8A3" stroke-miterlimit="10" stroke-linejoin="round"/>
<path d="M22.8799 15.5626V13.1805" stroke="#34B8A3" stroke-miterlimit="10" stroke-linejoin="round"/>
<path d="M22.88 17.5403C23.3763 17.5403 23.7785 17.1378 23.7785 16.6414C23.7785 16.1449 23.3763 15.7424 22.88 15.7424C22.3837 15.7424 21.9814 16.1449 21.9814 16.6414C21.9814 17.1378 22.3837 17.5403 22.88 17.5403Z" stroke="#34B8A3" stroke-miterlimit="10" stroke-linejoin="round"/>
<path d="M13.8047 30.8895H19.196" stroke="#34B8A3" stroke-miterlimit="10" stroke-linejoin="round"/>
</svg>
