<svg width="18" height="20" viewBox="0 0 18 20" fill="none" xmlns="http://www.w3.org/2000/svg">
<path d="M0.5 19.0312V15.16C0.510744 15.1415 0.52315 15.1206 0.537257 15.0974C0.60426 14.987 0.709457 14.8249 0.857031 14.6281C1.15235 14.2344 1.61593 13.7038 2.2811 13.1717C3.60508 12.1125 5.74646 11.0312 9 11.0312C12.2535 11.0312 14.3949 12.1125 15.7189 13.1717C16.3841 13.7038 16.8477 14.2344 17.143 14.6281C17.2905 14.8249 17.3957 14.987 17.4627 15.0974C17.4769 15.1206 17.4893 15.1415 17.5 15.16V19.0312H0.5ZM0.446568 15.2561C0.446487 15.2563 0.446541 15.2562 0.446731 15.2558L0.446568 15.2561Z" stroke="#34B8A3"/>
<circle cx="9" cy="4.53125" r="3.5" stroke="#34B8A3"/>
</svg>
