<svg width="38" height="26" viewBox="0 0 38 26" fill="none" xmlns="http://www.w3.org/2000/svg">
<path d="M9.53986 11.8182L4.80957 18.9091V25.2121H19.0004" stroke="#34B8A3" stroke-miterlimit="10"/>
<path d="M28.4606 11.8182L33.1909 18.9091V25.2121H19" stroke="#34B8A3" stroke-miterlimit="10"/>
<path d="M18.9998 19.697C21.6123 19.697 23.7301 17.7569 23.7301 15.3637C23.7301 12.9704 21.6123 11.0303 18.9998 11.0303C16.3874 11.0303 14.2695 12.9704 14.2695 15.3637C14.2695 17.7569 16.3874 19.697 18.9998 19.697Z" stroke="#34B8A3" stroke-miterlimit="10"/>
<path d="M19 0.787888C8.751 0.787888 2.7593 4.56971 0.867188 6.30304C1.41905 9.1394 2.28627 11.0303 3.23233 12.6061C5.67632 12.6061 8.751 11.9758 11.1161 11.0303V7.09092C11.9834 6.61819 14.585 5.51516 19 5.51516C23.4149 5.51516 26.0166 6.61819 26.8838 7.09092V11.0303C29.2489 11.9758 32.3236 12.6061 34.7676 12.6061C35.7137 11.0303 36.5809 9.1394 37.1327 6.30304C35.2406 4.56971 29.2489 0.787888 19 0.787888Z" stroke="#34B8A3" stroke-miterlimit="10"/>
</svg>
