<svg width="37" height="27" viewBox="0 0 37 27" fill="none" xmlns="http://www.w3.org/2000/svg">
<path d="M2.3125 20.8286V24.6858C2.3125 25.5343 3.00625 26.2286 3.85417 26.2286H34.6875C35.5354 26.2286 36.2292 25.5343 36.2292 24.6858V2.31434C36.2292 1.46577 35.5354 0.771484 34.6875 0.771484H3.85417C3.00625 0.771484 2.3125 1.46577 2.3125 2.31434V6.17148" stroke="#34B8A3" stroke-miterlimit="10" stroke-linejoin="round"/>
<path d="M5.39551 20.8286V23.9143" stroke="#34B8A3" stroke-miterlimit="10" stroke-linejoin="round"/>
<path d="M5.39551 10.0286V16.9714" stroke="#34B8A3" stroke-miterlimit="10" stroke-linejoin="round"/>
<path d="M32.375 3.08569V23.9143" stroke="#34B8A3" stroke-miterlimit="10" stroke-linejoin="round"/>
<path d="M5.39551 3.08572V5.40001" stroke="#34B8A3" stroke-miterlimit="10" stroke-linejoin="round"/>
<path d="M6.93717 10.0286H1.54134C1.07884 10.0286 0.770508 9.71999 0.770508 9.25713V6.94285C0.770508 6.47999 1.07884 6.17142 1.54134 6.17142H6.93717V10.0286Z" stroke="#34B8A3" stroke-miterlimit="10" stroke-linejoin="round"/>
<path d="M6.93717 20.8286H1.54134C1.07884 20.8286 0.770508 20.52 0.770508 20.0571V17.7429C0.770508 17.28 1.07884 16.9714 1.54134 16.9714H6.93717V20.8286Z" stroke="#34B8A3" stroke-miterlimit="10" stroke-linejoin="round"/>
<path d="M2.3125 10.0286V16.9714" stroke="#34B8A3" stroke-miterlimit="10" stroke-linejoin="round"/>
<path d="M18.4997 11.7257C18.7309 11.6486 18.9622 11.5714 19.2705 11.5714C20.5809 11.5714 21.583 12.5743 21.583 13.8857C21.583 15.1972 20.5809 16.2 19.2705 16.2C17.9601 16.2 16.958 15.1972 16.958 13.8857C16.958 13.5772 17.0351 13.3457 17.1122 13.1143" stroke="#34B8A3" stroke-miterlimit="10" stroke-linejoin="round"/>
<path d="M19.2708 19.2857C22.2509 19.2857 24.6667 16.8681 24.6667 13.8857C24.6667 10.9034 22.2509 8.48572 19.2708 8.48572C16.2908 8.48572 13.875 10.9034 13.875 13.8857C13.875 16.8681 16.2908 19.2857 19.2708 19.2857Z" stroke="#34B8A3" stroke-miterlimit="10" stroke-linejoin="round"/>
<path d="M19.2705 5.39999V8.48571" stroke="#34B8A3" stroke-miterlimit="10" stroke-linejoin="round"/>
<path d="M27.7503 13.8857H24.667" stroke="#34B8A3" stroke-miterlimit="10" stroke-linejoin="round"/>
<path d="M19.2705 22.3714V19.2857" stroke="#34B8A3" stroke-miterlimit="10" stroke-linejoin="round"/>
<path d="M10.792 13.8857H13.8753" stroke="#34B8A3" stroke-miterlimit="10" stroke-linejoin="round"/>
<path d="M25.2833 7.86853L23.0479 10.1057" stroke="#34B8A3" stroke-miterlimit="10" stroke-linejoin="round"/>
<path d="M25.2833 19.9028L23.0479 17.6656" stroke="#34B8A3" stroke-miterlimit="10" stroke-linejoin="round"/>
<path d="M13.2578 19.9028L15.4932 17.6656" stroke="#34B8A3" stroke-miterlimit="10" stroke-linejoin="round"/>
<path d="M13.2578 7.86853L15.4932 10.1057" stroke="#34B8A3" stroke-miterlimit="10" stroke-linejoin="round"/>
</svg>
