<svg width="9" height="20" viewBox="0 0 9 20" fill="none" xmlns="http://www.w3.org/2000/svg">
<mask id="path-1-inside-1" fill="white">
<path fill-rule="evenodd" clip-rule="evenodd" d="M4.5 0C3.11929 0 2 1.11929 2 2.5V11.7578C0.794014 12.565 0 13.9398 0 15.5C0 17.9853 2.01472 20 4.5 20C6.98528 20 9 17.9853 9 15.5C9 13.9398 8.20599 12.565 7 11.7578V2.5C7 1.11929 5.88071 0 4.5 0Z"/>
</mask>
<path d="M2 11.7578L2.55626 12.5888L3 12.2918V11.7578H2ZM7 11.7578H6V12.2918L6.44374 12.5888L7 11.7578ZM3 2.5C3 1.67157 3.67157 1 4.5 1V-1C2.567 -1 1 0.567004 1 2.5H3ZM3 11.7578V2.5H1V11.7578H3ZM1 15.5C1 14.2875 1.61575 13.2183 2.55626 12.5888L1.44374 10.9268C-0.0277233 11.9117 -1 13.5921 -1 15.5H1ZM4.5 19C2.567 19 1 17.433 1 15.5H-1C-1 18.5376 1.46243 21 4.5 21V19ZM8 15.5C8 17.433 6.433 19 4.5 19V21C7.53757 21 10 18.5376 10 15.5H8ZM6.44374 12.5888C7.38425 13.2183 8 14.2875 8 15.5H10C10 13.5921 9.02772 11.9117 7.55626 10.9268L6.44374 12.5888ZM6 2.5V11.7578H8V2.5H6ZM4.5 1C5.32843 1 6 1.67157 6 2.5H8C8 0.567004 6.433 -1 4.5 -1V1Z" fill="#34B8A3" mask="url(#path-1-inside-1)"/>
<circle cx="4.5" cy="15.5" r="2" stroke="#34B8A3"/>
<rect x="4.25" y="8.25" width="0.5" height="5.5" stroke="#34B8A3" stroke-width="0.5"/>
<rect x="3.25" y="9.25" width="1.5" height="0.5" stroke="#34B8A3" stroke-width="0.5"/>
<rect x="3.25" y="3.25" width="1.5" height="0.5" stroke="#34B8A3" stroke-width="0.5"/>
<rect x="3.25" y="6.25" width="1.5" height="0.5" stroke="#34B8A3" stroke-width="0.5"/>
</svg>