<svg width="35" height="27" viewBox="0 0 35 27" fill="none" xmlns="http://www.w3.org/2000/svg">
<path d="M28.152 20.25H6.08683C5.24987 20.25 4.56509 20.925 4.56509 21.75C4.56509 22.575 5.24987 23.25 6.08683 23.25H28.152C29.826 23.25 31.1955 21.9 31.1955 20.25C31.1955 18.6 29.826 17.25 28.152 17.25H5.32596C2.81509 17.25 0.760742 19.275 0.760742 21.75C0.760742 24.225 2.81509 26.25 5.32596 26.25H28.9129C31.8803 26.25 34.239 23.925 34.239 21V9V5.25C34.239 2.775 32.1847 0.75 29.6738 0.75H0.760742V17.25H5.32596" stroke="#34B8A3" stroke-miterlimit="10" stroke-linejoin="round"/>
<path d="M6.84766 0.75V17.25" stroke="#34B8A3" stroke-miterlimit="10" stroke-linejoin="round"/>
<path d="M10.6523 0.75V17.25" stroke="#34B8A3" stroke-miterlimit="10" stroke-linejoin="round"/>
</svg>
