<svg width="33" height="24" viewBox="0 0 33 24" fill="none" xmlns="http://www.w3.org/2000/svg">
<path d="M23.1067 15.843L24.8807 14.1046C22.7655 11.8314 19.6952 10.3604 16.2837 10.3604C12.8722 10.3604 9.87002 11.8314 7.75488 14.1046L11.1664 17.4477C12.3945 16.0436 14.2368 15.1075 16.2837 15.1075C18.3306 15.1075 20.241 16.0436 21.4692 17.4477" stroke="#34B8A3" stroke-miterlimit="10" stroke-linecap="round" stroke-linejoin="round"/>
<path d="M29.9979 9.09009L31.6354 7.48543C27.8145 3.54067 22.2878 0.999969 16.2836 0.999969C10.2793 0.999969 4.88913 3.54067 1 7.48543L4.41151 10.8285C7.34542 7.68602 11.5757 5.6802 16.2836 5.6802C20.9915 5.6802 25.29 7.68602 28.2921 10.7616" stroke="#34B8A3" stroke-miterlimit="10" stroke-linecap="round" stroke-linejoin="round"/>
<path d="M16.3522 19.0523C15.397 19.0523 14.5782 19.5204 14.1006 20.189C14.8511 20.9244 16.284 22.3285 16.284 22.3285L18.5356 20.1221C18.0579 19.5204 17.2392 19.0523 16.3522 19.0523Z" stroke="#34B8A3" stroke-miterlimit="10" stroke-linecap="round"/>
</svg>
