<svg width="121" height="121" viewBox="0 0 121 121" fill="none" xmlns="http://www.w3.org/2000/svg">
<path d="M102.508 17.6713C91.1682 6.28979 76.0979 0 60.0327 0C43.9676 0 28.947 6.28979 17.607 17.6713C6.26688 29.0528 0 44.1783 0 60.2522C0 76.3261 6.26688 91.5015 17.607 102.883C28.947 114.265 44.0174 120.554 60.0825 120.554C76.1476 120.554 91.2179 114.265 102.558 102.883C113.898 91.5015 120.165 76.376 120.165 60.2522C120.165 44.1284 113.848 29.0528 102.508 17.6713ZM101.066 19.119C103.006 21.0658 104.846 23.1624 106.487 25.3588H91.4666L87.9353 21.8146L95.4953 14.2269C97.4351 15.7245 99.2754 17.3718 101.066 19.119ZM71.3728 25.3588H30.091L41.4311 13.9773L44.7137 17.272L53.9648 7.98703L65.3049 19.3686L71.3728 25.3588ZM19.0493 19.119C21.2875 16.8726 23.6749 14.8259 26.2115 12.9789L26.1617 13.0288L32.8265 19.718L27.1565 25.3588H13.6777C15.319 23.2123 17.1096 21.1157 19.0493 19.119Z" fill="black"/>
</svg>
